<svg width="22" height="22" viewBox="0 0 22 22" fill="none" xmlns="http://www.w3.org/2000/svg">
<path d="M5.25176 14.8244C5.38272 14.8367 5.51481 14.823 5.64046 14.7841C5.76611 14.7452 5.88286 14.6819 5.98401 14.5978C6.08517 14.5138 6.16874 14.4105 6.22994 14.2941C6.29115 14.1777 6.32879 14.0503 6.3407 13.9194L6.85689 8.26957L15.2432 16.6559C15.4307 16.8434 15.6851 16.9487 15.9503 16.9487C16.2155 16.9487 16.4699 16.8434 16.6574 16.6559C16.8449 16.4683 16.9503 16.214 16.9503 15.9487C16.9503 15.6835 16.8449 15.4292 16.6574 15.2416L8.2711 6.85535L13.9209 6.33917C14.0518 6.32709 14.1791 6.28935 14.2954 6.2281C14.4118 6.16684 14.5149 6.08326 14.599 5.98215C14.683 5.88103 14.7463 5.76435 14.7853 5.63876C14.8242 5.51318 14.8381 5.38115 14.826 5.25022C14.8139 5.11929 14.7762 4.99202 14.7149 4.87568C14.6537 4.75933 14.5701 4.65619 14.469 4.57215C14.3678 4.4881 14.2512 4.42479 14.1256 4.38584C14 4.34689 13.868 4.33305 13.737 4.34513L5.95886 5.05223L5.78916 5.09466L5.64774 5.13709C5.4207 5.23769 5.23922 5.41917 5.13862 5.6462L5.09619 5.78762L5.05377 5.95733L4.34666 13.7355C4.33442 13.8665 4.34814 13.9986 4.38702 14.1242C4.42591 14.2499 4.48921 14.3666 4.57328 14.4678C4.65736 14.5689 4.76056 14.6525 4.87699 14.7137C4.99341 14.7749 5.12076 14.8125 5.25176 14.8244Z" fill="#9FA5C0"/>
</svg>
