<svg xmlns="http://www.w3.org/2000/svg" width="78" height="78" fill="none" viewBox="0 0 78 78">
    <path fill="#1FADCC" d="M77.384 51.134a1.25 1.25 0 0 0 .366-.884v-45A1.25 1.25 0 0 0 76.5 4h-1.25V1.5A1.25 1.25 0 0 0 74 .25h-7.5a1.25 1.25 0 0 0-1.25 1.25V4H64a1.25 1.25 0 0 0-1.25 1.25V21.5H51.5V9a1.25 1.25 0 0 0-1.25-1.25h-25A1.25 1.25 0 0 0 24 9v13.75h-7.5A1.25 1.25 0 0 0 15.25 24v25h-7.5v-6.25h3.75a1.251 1.251 0 0 0 1.186-1.645l-5-15a1.25 1.25 0 0 0-2.375 0l-5 15a1.25 1.25 0 0 0 1.19 1.645h3.75V49H1.5v2.5h18.63L.53 75.714A1.25 1.25 0 0 0 1.5 77.75h75a1.25 1.25 0 0 0 .971-2.036L57.875 51.5H76.5c.332 0 .65-.132.884-.366zM6.5 30.453l3.266 9.797H3.234L6.5 30.453zM75.25 44H71.5v-2.5h3.75V44zm0-20H71.5v-2.5h3.75V24zm-10-12.5H69V14h-3.75v-2.5zm0 20H69V34h-3.75v-2.5zM61.851 24h.9v25H51.5V24h10.35zm-35.35-13.75H49V49H37.75V24a1.25 1.25 0 0 0-1.25-1.25h-10v-12.5zM35.25 34h-17.5v-3.75h17.5V34zm0-8.75v2.5h-17.5v-2.5h17.5zM17.75 36.5h17.5V49H31.5v-5a5 5 0 1 0-10 0v5h-3.75V36.5zM24 49v-5a2.5 2.5 0 0 1 5 0v5h-5zm-.655 2.5h1.975L8.356 75.25h-4.23l19.22-23.75zM37.75 70.25v5H11.43L28.394 51.5h9.356v3.75h2.5V51.5h9.356l16.965 23.75h-26.32v-5h-2.5zm36.125 5h-4.231L52.679 51.5h1.975l19.221 23.75zM65.25 49V36.5h5a1.25 1.25 0 0 0 1.25-1.25v-5A1.25 1.25 0 0 0 70.25 29h-5V16.5h5a1.25 1.25 0 0 0 1.25-1.25v-5A1.25 1.25 0 0 0 70.25 9h-5V6.5h1.25a1.25 1.25 0 0 0 1.25-1.25v-2.5h5v2.5A1.25 1.25 0 0 0 74 6.5h1.25V19h-5A1.25 1.25 0 0 0 69 20.25v5a1.25 1.25 0 0 0 1.25 1.25h5V39h-5A1.25 1.25 0 0 0 69 40.25v5a1.25 1.25 0 0 0 1.25 1.25h5V49h-10z"/>
</svg>
