<svg width="80" height="80" viewBox="0 0 80 80" fill="none" xmlns="http://www.w3.org/2000/svg">
<path d="M78.4375 46.5623H63.7434C62.8806 46.5623 62.1809 47.2619 62.1809 48.1248C62.1809 48.9876 62.8806 49.6872 63.7434 49.6872H78.4375C79.3003 49.6872 80 48.9876 80 48.1248C80 47.2619 79.3004 46.5623 78.4375 46.5623Z" fill="#2E3E5C"/>
<path d="M58.9173 47.0201C58.6252 46.7293 58.2237 46.5623 57.8127 46.5623C57.4001 46.5623 56.9987 46.7293 56.7081 47.0201C56.4174 47.3108 56.2502 47.7138 56.2502 48.1248C56.2502 48.5357 56.4173 48.9388 56.7081 49.2293C56.9987 49.5199 57.4002 49.6872 57.8127 49.6872C58.2237 49.6872 58.6268 49.5201 58.9173 49.2293C59.2079 48.9388 59.3752 48.5357 59.3752 48.1248C59.3752 47.7138 59.2081 47.3107 58.9173 47.0201Z" fill="#2E3E5C"/>
<path d="M50.0004 46.5623H37.695C37.1586 46.5623 36.6598 46.8374 36.3736 47.2908L17.2447 77.603C16.7843 78.3328 17.0024 79.2978 17.7322 79.7583C17.9911 79.9216 18.2796 79.9995 18.5646 79.9995C19.083 79.9995 19.5902 79.7417 19.8875 79.2708L38.5564 49.6873H50.0003C50.8631 49.6873 51.5628 48.9876 51.5628 48.1248C51.5628 47.2619 50.8634 46.5623 50.0004 46.5623Z" fill="#2E3E5C"/>
<path d="M23.9836 40.0496L2.74144 18.8075C2.13113 18.1973 1.14207 18.1973 0.531603 18.8075C-0.0785521 19.4176 -0.0785521 20.407 0.531603 21.0172L20.8897 41.3751L0.243479 73.9858C-0.218083 74.715 -0.00120847 75.6803 0.727853 76.1419C0.987227 76.3061 1.27645 76.3844 1.56223 76.3844C2.07988 76.3844 2.5866 76.1272 2.88394 75.6577L24.1991 41.9904C24.5898 41.3727 24.5005 40.5666 23.9836 40.0496Z" fill="#2E3E5C"/>
<path d="M18.6922 11.7776L7.37546 0.461034C6.76515 -0.149121 5.77609 -0.149121 5.16562 0.461034C4.55547 1.07119 4.55547 2.06056 5.16562 2.67087L16.4825 13.9874C16.7876 14.2926 17.1875 14.4451 17.5873 14.4451C17.9872 14.4451 18.387 14.2926 18.6922 13.9874C19.3023 13.3773 19.3023 12.3879 18.6922 11.7776Z" fill="#2E3E5C"/>
<path d="M22.4663 15.5517C22.1759 15.2611 21.7728 15.0955 21.3618 15.0955C20.9509 15.0955 20.5478 15.2611 20.2571 15.5517C19.9665 15.8423 19.7993 16.2455 19.7993 16.658C19.7993 17.0689 19.9663 17.4705 20.2571 17.7611C20.5478 18.0534 20.9509 18.2205 21.3618 18.2205C21.7728 18.2205 22.1759 18.0533 22.4663 17.7611C22.7585 17.4705 22.9243 17.0689 22.9243 16.658C22.9243 16.2455 22.7585 15.8439 22.4663 15.5517Z" fill="#2E3E5C"/>
<path d="M78.4375 38.4375H73.8281C72.9653 38.4375 72.2656 39.137 72.2656 40C72.2656 40.8628 72.9653 41.5625 73.8281 41.5625H78.4375C79.3003 41.5625 80 40.8628 80 40C80 39.137 79.3005 38.4375 78.4375 38.4375Z" fill="#2E3E5C"/>
<path d="M67.2167 38.4375H63.5515C62.6887 38.4375 61.989 39.137 61.989 40C61.989 40.8628 62.6885 41.5625 63.5515 41.5625H67.2167C68.0795 41.5625 68.7792 40.8628 68.7792 40C68.7792 39.137 68.0795 38.4375 67.2167 38.4375Z" fill="#2E3E5C"/>
<path d="M78.4376 30.3126H64.1432L67.1902 26.407C67.1935 26.4026 67.197 26.3982 67.2001 26.394C69.526 23.5218 70.8063 19.9051 70.8063 16.2034C70.8063 7.26907 63.5377 0.000488281 54.6034 0.000488281C45.6692 0.000488281 38.4004 7.26907 38.4004 16.2034C38.4004 19.9092 39.6803 23.5223 42.0073 26.3957C42.0275 26.4256 42.0487 26.4548 42.0711 26.4836L45.0598 30.3126H37.2273L26.4787 19.564C25.8684 18.9539 24.8794 18.954 24.2689 19.564C23.6587 20.1742 23.6587 21.1636 24.2689 21.7739L35.4751 32.98C35.7683 33.2729 36.1656 33.4376 36.58 33.4376H46.8756C47.0678 33.4376 47.251 33.4012 47.421 33.3378L51.4017 38.4374H50.7817C49.9189 38.4374 49.2192 39.137 49.2192 39.9999C49.2192 40.8627 49.9189 41.5624 50.7817 41.5624H56.5109C57.3738 41.5624 58.0734 40.8627 58.0734 39.9999C58.0734 39.5206 57.857 39.0921 57.5171 38.8054L61.7051 33.4375H78.4376C79.3004 33.4375 80.0001 32.7379 80.0001 31.875C80.0001 31.012 79.3004 30.3126 78.4376 30.3126ZM54.6031 37.4601L44.627 24.6793C44.5934 24.6267 44.5562 24.5758 44.5159 24.5268C42.5875 22.1928 41.5254 19.2367 41.5254 16.2034C41.5254 8.99235 47.3923 3.12548 54.6034 3.12548C61.8145 3.12548 67.6813 8.99235 67.6813 16.2034C67.6813 19.2047 66.6388 22.1365 64.746 24.4587C64.729 24.4798 64.7124 24.5011 64.6966 24.5228L54.6031 37.4601Z" fill="#2E3E5C"/>
<path d="M42.5584 38.4375H37.4985C36.6357 38.4375 35.936 39.137 35.936 40C35.936 40.8628 36.6357 41.5625 37.4985 41.5625H42.5584C43.4212 41.5625 44.1209 40.8628 44.1209 40C44.1207 39.137 43.4212 38.4375 42.5584 38.4375Z" fill="#2E3E5C"/>
<path d="M6.54064 11.1166L2.66721 7.24302C2.05706 6.63286 1.068 6.63286 0.457372 7.24302C-0.152783 7.85317 -0.152783 8.84255 0.457372 9.4527L4.33096 13.3263C4.63611 13.6314 5.03596 13.7839 5.4358 13.7839C5.83564 13.7839 6.23549 13.6313 6.54064 13.3263C7.1508 12.7161 7.1508 11.7268 6.54064 11.1166Z" fill="#2E3E5C"/>
<path d="M14.8505 19.4261L10.9769 15.5526C10.3666 14.9423 9.3775 14.9425 8.76719 15.5526C8.15703 16.1628 8.15703 17.1522 8.76719 17.7623L12.6408 21.6359C12.9459 21.9411 13.3458 22.0936 13.7456 22.0936C14.1455 22.0936 14.5453 21.9409 14.8505 21.6359C15.4606 21.0256 15.4606 20.0362 14.8505 19.4261Z" fill="#2E3E5C"/>
<path d="M23.1598 27.7358L19.2862 23.8622C18.676 23.2519 17.687 23.2521 17.0765 23.8622C16.4664 24.4724 16.4664 25.4617 17.0765 26.0719L20.9501 29.9455C21.2552 30.2506 21.6551 30.4031 22.0549 30.4031C22.4548 30.4031 22.8546 30.2505 23.1598 29.9455C23.7699 29.3353 23.7699 28.346 23.1598 27.7358Z" fill="#2E3E5C"/>
<path d="M31.0532 35.629L27.5957 32.1715C26.9854 31.5613 25.9963 31.5613 25.3858 32.1715C24.7757 32.7816 24.7757 33.771 25.3858 34.3812L28.8435 37.8387C29.1486 38.1438 29.5485 38.2963 29.9483 38.2963C30.3482 38.2963 30.748 38.1437 31.0532 37.8387C31.6633 37.2285 31.6633 36.2391 31.0532 35.629Z" fill="#2E3E5C"/>
<path d="M13.055 71.9462C12.325 71.4855 11.3604 71.704 10.8997 72.4337L7.63755 77.603C7.17708 78.3329 7.3952 79.2979 8.12504 79.7583C8.38395 79.9218 8.67239 79.9996 8.95739 79.9996C9.47582 79.9996 9.98301 79.7418 10.2804 79.2709L13.5425 74.1015C14.003 73.3716 13.7849 72.4066 13.055 71.9462Z" fill="#2E3E5C"/>
<path d="M20.2432 60.5551C19.5132 60.0945 18.5485 60.3128 18.0879 61.0426L14.7757 66.2915C14.3152 67.0213 14.5335 67.9863 15.2632 68.4468C15.5221 68.6102 15.8105 68.688 16.0955 68.688C16.614 68.688 17.1212 68.4302 17.4185 67.9593L20.7307 62.7104C21.1911 61.9806 20.9729 61.0156 20.2432 60.5551Z" fill="#2E3E5C"/>
<path d="M26.3774 50.8342C25.6474 50.3734 24.6824 50.592 24.2221 51.3217L21.9068 54.9909C21.4463 55.7207 21.6646 56.6857 22.3943 57.1462C22.6532 57.3096 22.9416 57.3874 23.2266 57.3874C23.7451 57.3874 24.2524 57.1296 24.5496 56.6587L26.8649 52.9895C27.3254 52.2596 27.1071 51.2946 26.3774 50.8342Z" fill="#2E3E5C"/>
<path d="M31.9167 42.0567C31.1867 41.5957 30.222 41.8145 29.7614 42.5442L27.4928 46.1388C27.0323 46.8687 27.2504 47.8337 27.9803 48.2942C28.2392 48.4576 28.5276 48.5354 28.8126 48.5354C29.331 48.5354 29.8382 48.2776 30.1356 47.8067L32.4042 44.212C32.8646 43.4821 32.6465 42.5171 31.9167 42.0567Z" fill="#2E3E5C"/>
<path d="M54.6034 8.46851C50.2096 8.46851 46.6353 12.043 46.6353 16.4368C46.6353 20.8305 50.2098 24.405 54.6034 24.405C58.997 24.405 62.5716 20.8304 62.5716 16.4368C62.5716 12.0432 58.997 8.46851 54.6034 8.46851ZM54.6034 21.2802C51.9327 21.28 49.7601 19.1074 49.7601 16.4368C49.7601 13.7662 51.9327 11.5933 54.6034 11.5933C57.2741 11.5933 59.4468 13.766 59.4468 16.4368C59.4466 19.1075 57.274 21.2802 54.6034 21.2802Z" fill="#2E3E5C"/>
</svg>
